<?xml version="1.0" encoding="utf-8"?>
<!-- Generator: Adobe Illustrator 27.5.0, SVG Export Plug-In . SVG Version: 6.00 Build 0)  -->
<svg version="1.1" xmlns="http://www.w3.org/2000/svg" xmlns:xlink="http://www.w3.org/1999/xlink" x="0px" y="0px"
	 viewBox="0 0 500 500" style="enable-background:new 0 0 500 500;" xml:space="preserve">
<g id="BACKGROUND">
	<g>
		<g>
			<path style="fill:#FDF5FC;" d="M46.312,364.722c19.14,17.52,46.73,24.78,72.27,23.67c14.15-0.62,28.91-3.32,42.05,1.97
				c4.07,1.64,7.71,3.88,11.08,6.51c12.74,9.93,21.53,25.4,34.4,35.06c25.52,19.18,59.7,27.82,92.52,25.35
				c19.76-1.49,39.04-7.02,55.65-16.72c10.04-5.85,19.11-13.25,26.72-22.2c5.52-6.49,10.28-13.81,14.08-21.97
				c1.11-2.38,2.14-4.85,3.09-7.38c2.44-6.51,3.86-13.19,4.57-19.93c0.88-8.19,0.75-16.5,0.18-24.79c-0.39-5.86-1-11.72-1.6-17.53
				c-0.9-8.54-1.95-17.29-2.67-26.05c-1.4-16.94-1.64-33.92,2.49-49.57c0.43-1.63,0.9-3.25,1.43-4.85
				c3.72-11.27,9.98-21.75,20.05-30.86c0.5-0.46,1-0.89,1.51-1.32c6.91-5.96,14.75-10.75,22.2-16.05c1.62-1.15,3.21-2.31,4.76-3.51
				c6.24-4.82,10.85-10.1,14.08-15.68c3.77-6.53,5.65-13.46,5.98-20.54c1.26-25.68-17.62-53.27-38.96-70.37
				c-21.8-17.46-49.32-23.12-71.76-10.32c-5.68,3.23-11.02,7.64-15.87,13.34c-0.16,0.19-0.32,0.38-0.48,0.56
				c-5.52,6.63-9.39,14.58-14.95,21.11c-0.91,1.1-1.9,2.15-2.93,3.16c-6.12,5.91-14.33,9.45-22.8,10.3l-0.01,0.01
				c-7.05,0.72-14.29-0.42-20.64-3.56c-17.95-8.89-26.28-30.14-42.18-42.23l-1.93-1.42l-0.08-0.05
				c-15.23-10.4-35.24-10.78-53.4-7.56c-5.68,1.01-11.38,2.4-16.94,4.2c-16.32,5.23-31.64,13.85-42.97,25.94
				c-5.39,5.77-9.86,12.31-13.11,19.65c-1.27,2.89-2.34,5.92-3.09,9.02c-1.51,6.3-1.71,12.86,0.33,18.95
				c1.31,3.9,3.41,7.35,5.93,10.53c4.81,6.01,11.2,11.08,16.77,16.52c8.53,8.31,15.97,20.52,11.57,31.59
				c-0.56,1.4-1.28,2.71-2.13,3.91c-3.38,4.87-8.76,8.34-13.94,11.45c-2.68,1.62-5.4,3.16-8.16,4.67
				c-10.98,6.03-22.47,11.37-33.72,17.11c-14.8,7.53-29.17,15.75-41.41,27.09c-0.35,0.3-0.7,0.62-1.03,0.94
				c-12.02,11.4-18.24,25.58-19.1,40.04C23.042,331.452,30.732,350.462,46.312,364.722z"/>
		</g>
		<g>
			<g>
				
					<ellipse transform="matrix(0.9216 -0.3881 0.3881 0.9216 -86.1522 37.5776)" style="fill:#FDF5FC;" cx="49.945" cy="232.053" rx="8.087" ry="8.087"/>
				<circle style="fill:#FDF5FC;" cx="45.902" cy="254.031" r="4.043"/>
				<path style="fill:#FDF5FC;" d="M29.921,238.78c-2.427,1.401-3.259,4.505-1.857,6.932c1.401,2.427,4.505,3.259,6.932,1.857
					c2.427-1.401,3.259-4.505,1.857-6.932C35.451,238.21,32.348,237.378,29.921,238.78z"/>
			</g>
			<g>
				
					<ellipse transform="matrix(0.7071 -0.7071 0.7071 0.7071 -14.988 391.3729)" style="fill:#FDF5FC;" cx="464.935" cy="213.779" rx="11.01" ry="11.01"/>
				<path style="fill:#FDF5FC;" d="M453.925,243.699c0,3.04,2.465,5.505,5.505,5.505s5.505-2.465,5.505-5.505
					c0-3.04-2.465-5.505-5.505-5.505S453.925,240.659,453.925,243.699z"/>
				<path style="fill:#FDF5FC;" d="M437.674,222.936c-3.304,1.908-4.436,6.133-2.529,9.437c1.908,3.304,6.133,4.436,9.437,2.529
					c3.304-1.908,4.436-6.133,2.529-9.437C445.203,222.161,440.978,221.029,437.674,222.936z"/>
			</g>
			<g>
				
					<ellipse transform="matrix(0.9935 -0.114 0.114 0.9935 -3.9575 37.4356)" style="fill:#FDF5FC;" cx="325.292" cy="53.316" rx="11.01" ry="11.009"/>
				<path style="fill:#FDF5FC;" d="M314.283,83.236c0,3.04,2.465,5.505,5.505,5.505s5.505-2.465,5.505-5.505
					s-2.465-5.505-5.505-5.505S314.283,80.196,314.283,83.236z"/>
				<path style="fill:#FDF5FC;" d="M298.031,62.473c-3.304,1.908-4.436,6.133-2.529,9.437c1.908,3.304,6.133,4.436,9.437,2.529
					c3.304-1.908,4.436-6.133,2.529-9.437C305.561,61.698,301.336,60.566,298.031,62.473z"/>
			</g>
			<g>
				
					<ellipse transform="matrix(0.3853 -0.9228 0.9228 0.3853 -295.6002 383.9627)" style="fill:#FDF5FC;" cx="140.392" cy="413.851" rx="11.009" ry="11.01"/>
				<path style="fill:#FDF5FC;" d="M129.383,443.772c0,3.04,2.464,5.505,5.505,5.505c3.04,0,5.505-2.465,5.505-5.505
					s-2.465-5.505-5.505-5.505C131.847,438.267,129.383,440.731,129.383,443.772z"/>
				<path style="fill:#FDF5FC;" d="M113.131,423.009c-3.304,1.908-4.436,6.133-2.529,9.437c1.908,3.304,6.133,4.436,9.437,2.529
					c3.304-1.908,4.436-6.133,2.529-9.437C120.66,422.233,116.435,421.101,113.131,423.009z"/>
			</g>
		</g>
	</g>
</g>
<g id="OBJECTS">
	<ellipse style="fill:#E6E6E6;" cx="250" cy="398.222" rx="152.554" ry="9.718"/>
	<g>
		<g>
			<g>
				<g>
					<linearGradient id="SVGID_1_" gradientUnits="userSpaceOnUse" x1="220.8799" y1="196.6987" x2="347.5467" y2="93.0321">
						<stop  offset="0.0019" style="stop-color:#3A1081"/>
						<stop  offset="0.7812" style="stop-color:#63419B"/>
					</linearGradient>
					<path style="fill:url(#SVGID_1_);" d="M338.836,205.978H207.624c-2.41,0-4.365-1.954-4.365-4.365v-95.519
						c0-2.41,1.954-4.365,4.365-4.365h131.212c2.41,0,4.365,1.954,4.365,4.365v95.519
						C343.201,204.024,341.246,205.978,338.836,205.978z"/>
					<rect x="211.23" y="109.417" style="fill:#FFFFF9;" width="124" height="88.875"/>
				</g>
				
					<linearGradient id="SVGID_00000123400209707947176280000016246632541873176726_" gradientUnits="userSpaceOnUse" x1="250.3552" y1="225.1247" x2="296.1052" y2="225.1247">
					<stop  offset="0.0019" style="stop-color:#3A1081"/>
					<stop  offset="0.7812" style="stop-color:#63419B"/>
				</linearGradient>
				<path style="fill:url(#SVGID_00000123400209707947176280000016246632541873176726_);" d="M290.492,222.318h-34.524
					c-3.1,0-5.613,2.513-5.613,5.613l0,0h45.75l0,0C296.105,224.831,293.592,222.318,290.492,222.318z"/>
				
					<linearGradient id="SVGID_00000052807033420662625270000012920736776419724931_" gradientUnits="userSpaceOnUse" x1="273.2302" y1="225.3613" x2="273.2302" y2="207.3489">
					<stop  offset="0.0019" style="stop-color:#3A1081"/>
					<stop  offset="0.7812" style="stop-color:#63419B"/>
				</linearGradient>
				
					<rect x="256.73" y="205.978" style="fill:url(#SVGID_00000052807033420662625270000012920736776419724931_);" width="33" height="16.34"/>
			</g>
			<g>
				<rect x="211.23" y="109.417" style="fill:#CCCCCC;" width="124" height="3.336"/>
				<rect x="211.23" y="111.815" style="fill:#4D4D4D;" width="124" height="3.336"/>
				<g>
					<rect x="211.23" y="114.753" style="fill:#666666;" width="5.792" height="83.539"/>
					<rect x="211.23" y="114.753" style="fill:#4D4D4D;" width="5.792" height="2.398"/>
					<circle style="fill:#4D4D4D;" cx="213.995" cy="121.39" r="1.607"/>
					<circle style="fill:#999999;" cx="213.995" cy="125.923" r="1.607"/>
					<circle style="fill:#4D4D4D;" cx="213.995" cy="130.457" r="1.607"/>
					<circle style="fill:#999999;" cx="213.995" cy="134.991" r="1.607"/>
					<circle style="fill:#4D4D4D;" cx="213.995" cy="139.525" r="1.607"/>
					<circle style="fill:#999999;" cx="213.995" cy="144.059" r="1.607"/>
					<circle style="fill:#4D4D4D;" cx="213.995" cy="148.593" r="1.607"/>
					<circle style="fill:#999999;" cx="213.995" cy="153.127" r="1.607"/>
					<circle style="fill:#4D4D4D;" cx="213.995" cy="157.661" r="1.607"/>
					<circle style="fill:#999999;" cx="213.995" cy="162.195" r="1.607"/>
					<circle style="fill:#4D4D4D;" cx="213.995" cy="166.729" r="1.607"/>
					<rect x="212.995" y="171.092" style="fill:#4D4D4D;" width="2.658" height="2.658"/>
					<rect x="212.388" y="169.763" style="fill:#FFFFFF;" width="2.658" height="2.658"/>
				</g>
				<g>
					<rect x="329.438" y="114.753" style="fill:#666666;" width="5.792" height="83.539"/>
					<rect x="329.438" y="114.753" style="fill:#4D4D4D;" width="5.792" height="2.398"/>
					<circle style="fill:#4D4D4D;" cx="332.203" cy="121.39" r="1.607"/>
					<circle style="fill:#999999;" cx="332.203" cy="125.923" r="1.607"/>
					<circle style="fill:#4D4D4D;" cx="332.203" cy="130.457" r="1.607"/>
					<circle style="fill:#999999;" cx="332.203" cy="134.991" r="1.607"/>
					<circle style="fill:#4D4D4D;" cx="332.203" cy="139.525" r="1.607"/>
					<circle style="fill:#999999;" cx="332.203" cy="144.059" r="1.607"/>
					<circle style="fill:#4D4D4D;" cx="332.203" cy="148.593" r="1.607"/>
					<circle style="fill:#999999;" cx="332.203" cy="153.127" r="1.607"/>
					<circle style="fill:#4D4D4D;" cx="332.203" cy="157.661" r="1.607"/>
					<circle style="fill:#999999;" cx="332.203" cy="162.195" r="1.607"/>
					<circle style="fill:#4D4D4D;" cx="332.203" cy="166.729" r="1.607"/>
				</g>
				<g>
					<g>
						<g>
							<path style="fill:#4E8DA1;" d="M259.472,172.76h-6.19c-3.909,0-7.108-3.199-7.108-7.108v-11.498
								c0-3.909,3.199-7.108,7.108-7.108h6.19c3.909,0,7.108,3.198,7.108,7.108v11.498
								C266.58,169.561,263.381,172.76,259.472,172.76z"/>
							<g>
								<g>
									<path style="fill:#98565C;" d="M280.068,160.214l-2.407,4.887c2.204,0.142,4.639,0.022,6.693-0.548
										c1.148-0.315,2.507-0.48,3.542-0.749c1.037-0.262,1.678-0.401,2.626-0.771c1.205-0.079,1.738-0.19,2.878-0.399
										c1.14-0.209,1.759-0.383,2.491-0.924c0.959-0.706,0.838-2.314,0.144-2.878c-2.03-1.65-3.939-1.31-6.067,2.232
										c-1.102-0.164-4.765-0.83-6.698-0.765C282.423,160.315,281.271,160.291,280.068,160.214z"/>
									<path style="fill:#E6E6E6;" d="M265.024,154.642c1.417,2.095,3.207,4.072,4.936,6.362c0.821,1.083,2.309,2.737,4.159,3.501
										l2.326-4.724c-0.295-0.052-0.57-0.11-0.832-0.178c-0.817-2.252-1.738-4.453-2.812-6.567c-0.668-1.332-1.396-2.64-2.192-3.9
										c-0.975-1.536-2.245-2.718-3.946-3.234c-0.955-0.277-1.956-0.424-2.76-0.256c-0.016-0.003-0.014,0.004-0.014,0.004
										c-0.688,0.159-1.222,0.557-1.43,1.308c-0.11,0.407-0.136,0.932-0.02,1.572
										C262.829,150.868,263.788,152.801,265.024,154.642z"/>
								</g>
								<path style="fill:#63419B;" d="M274.12,164.505c0.402,0.171,0.819,0.293,1.251,0.359c0.717,0.107,1.486,0.191,2.289,0.237
									l2.407-4.887c-1.226-0.078-2.521-0.218-3.622-0.434L274.12,164.505z"/>
							</g>
							<g>
								<path style="fill:#4E8DA1;" d="M259.959,142.803c-2.201-1.068-5.475-1.662-6.878-4.076
									c-1.231-2.116-0.801-6.177,0.059-8.335c0.841-2.111,2.916-4.338,5.369-4.546c1.103-0.093,2.615,1.159,3.629,1.612
									c1.301,0.581,1.595,1.291,1.567,2.612c-0.051,2.41-0.287,5.222-0.855,7.569c-0.524,2.162-1.659,3.876-2.738,5.784
									c-0.181-0.06-0.284-0.188-0.379-0.324"/>
							</g>
							<path style="fill:#98565C;" d="M262.04,140.638l-0.106,3.475c0,0-3.291-0.903-4.484-1.2c0.079-1.273,0.185-2.948,0.231-3.099
								L262.04,140.638z"/>
							<polygon style="fill:#E6E6E6;" points="263.708,145.037 263.708,145.043 263.141,146.982 261.934,144.113 262.68,143.421 
															"/>
							<path style="fill:#63419B;" d="M253.968,172.76c0.251-5.177-0.356-10.38-1.833-15.398l-0.719-2.46
								c-0.152-3.495-0.666-5.44,2.189-7.267c0.132-0.079,1.8-1.55,2.869-2.493l4.234,2.315l1.226-3.343l1.207,2.869l0.567-1.939
								l1.022,0.534c0,0,4.893,1.517,5.045,9.166c0.033,1.668-0.369,6.245-0.772,7.979c-0.587,2.532-0.87,6.034,1.115,10.037
								H253.968z"/>
							<g>
								<path style="fill:#A4686E;" d="M253.841,137.295c-0.414-1.087-0.315-2.61,0.607-2.821c0.275-0.063,0.607-0.004,0.944,0.136
									c0.252-3.29,2.12-7.178,4.427-7.706c3.018-0.692,5.875,0.443,7.448,8.291c0.622,3.105-1.039,6.702-3.965,7.647
									c-2.199,0.711-5.168-1.346-6.764-3.729C255.503,138.968,254.366,138.672,253.841,137.295z"/>
							</g>
							<g>
								<path style="fill:#4E8DA1;" d="M269.398,127.088c-0.011-0.784-1.333-1.013-2.044-1.148
									c-1.133-0.214-2.264-0.176-3.418-0.233c-0.866-0.043-2.838-0.138-2.838-0.138c-2.957-0.315-6.592,1.297-7.147,4
									c-0.383,1.866,0.289,2.99,1.152,4.465c0.899,1.536,1.524,2.857,1.735,4.616c0.708-1.326,0.539-3.403,0.438-4.831
									c-0.09-1.277-0.089-1.183,1.06-1.495c1.04-0.282,1.919-0.711,2.745-1.381c-0.17,0.486-0.498,1.122-0.779,1.671
									c2.087-0.286,4.141-0.824,5.22-2.665c1.157,0.649,1.997,0.712,3.269,2.132c0.043-2.854-1.578-3.63-1.578-3.63
									C267.908,128.368,269.41,127.993,269.398,127.088z"/>
							</g>
							<g>
								<g>
									<path style="fill:#98565C;" d="M264.362,167.452l-3.808,3.896c2.051,0.821,4.403,1.464,6.531,1.561
										c1.189,0.058,2.532,0.323,3.599,0.39c1.067,0.074,1.72,0.141,2.736,0.084c1.17,0.3,1.711,0.359,2.859,0.515
										c1.148,0.156,1.791,0.183,2.655-0.103c1.131-0.373,1.516-1.938,1.032-2.69c-1.416-2.2-3.337-2.47-6.461,0.234
										c-0.996-0.498-4.271-2.271-6.128-2.811C266.569,168.281,265.482,167.899,264.362,167.452z"/>
									<path style="fill:#E6E6E6;" d="M251.797,157.477c0.695,2.432,1.782,4.868,2.713,7.582c0.444,1.285,1.344,3.32,2.864,4.621
										l3.68-3.766c-0.264-0.141-0.507-0.282-0.735-0.428c-0.076-2.394-0.266-4.772-0.63-7.116
										c-0.221-1.474-0.506-2.943-0.871-4.388c-0.449-1.763-1.2-4.436-2.352-5.789c-1.057-1.242-4.153-1.083-5.058,1.863
										C250.711,152.321,251.195,155.342,251.797,157.477z"/>
								</g>
								<path style="fill:#3A1081;" d="M257.374,169.68c0.329,0.287,0.688,0.533,1.078,0.73c0.648,0.324,1.353,0.644,2.102,0.937
									l3.808-3.896c-1.141-0.455-2.328-0.991-3.307-1.539L257.374,169.68z"/>
							</g>
							<path style="fill:#E6E6E6;" d="M261.934,144.113l-1.226,3.343l-4.234-2.315l-0.007-0.007l0.58-2.315
								c0.059,0.007,0.198,0.04,0.402,0.092C258.644,143.21,261.934,144.113,261.934,144.113z"/>
							<g>
								<g>
									<path style="fill:#E6E6E6;" d="M263.377,148.365c0,0.037,0,0.073,0,0.11"/>
									<g>
										<path style="fill:#FFFFFF;" d="M262.717,148.365c0,0.037,0,0.073,0,0.11c0,0.849,1.319,0.85,1.319,0
											c0-0.037,0-0.073,0-0.11C264.036,147.516,262.717,147.515,262.717,148.365L262.717,148.365z"/>
									</g>
								</g>
								<g>
									<path style="fill:#E6E6E6;" d="M264.695,151.552"/>
									<g>
										<path style="fill:#FFFFFF;" d="M264.695,152.212c0.849,0,0.85-1.319,0-1.319
											C263.847,150.893,263.845,152.212,264.695,152.212L264.695,152.212z"/>
									</g>
								</g>
								<g>
									<g>
										<path style="fill:#FFFFFF;" d="M264.915,155.399c0.849,0,0.85-1.319,0-1.319
											C264.067,154.08,264.065,155.399,264.915,155.399L264.915,155.399z"/>
									</g>
								</g>
								<g>
									<path style="fill:#E6E6E6;" d="M264.915,158.476c0.037,0,0.073,0,0.11,0"/>
									<g>
										<path style="fill:#FFFFFF;" d="M264.915,159.136c0.037,0,0.073,0,0.11,0c0.849,0,0.85-1.319,0-1.319
											c-0.037,0-0.073,0-0.11,0C264.067,157.817,264.065,159.136,264.915,159.136L264.915,159.136z"/>
									</g>
								</g>
							</g>
						</g>
						<g>
							<g>
								<path style="fill:#63419B;" d="M303.862,176.136L303.862,176.136c0,3.558-2.884,6.443-6.443,6.443h-56.837
									c-3.558,0-6.443-2.885-6.443-6.443v0H303.862z"/>
								<path style="fill:#3A1081;" d="M307.922,176.137h-77.359c-1.015,0-1.838-0.823-1.838-1.838l0,0
									c0-1.015,0.823-1.837,1.838-1.837h77.359c1.015,0,1.838,0.823,1.838,1.837l0,0
									C309.759,175.314,308.937,176.137,307.922,176.137z"/>
							</g>
							<g>
								<g>
									<polygon style="fill:#88DCF2;" points="309.229,142.45 278.651,142.45 274.694,166.589 305.273,166.589 									"/>
									<polygon style="fill:#4E8DA1;" points="299.522,151.434 285.483,151.434 283.666,162.517 297.706,162.517 									"/>
									<polygon style="fill:#4E8DA1;" points="285.483,151.434 284.721,150.419 282.971,161.558 283.666,162.517 									"/>
									<polygon style="fill:#4E8DA1;" points="284.721,150.419 298.807,150.419 299.522,151.434 285.483,151.434 									"/>
									<polygon style="fill:#4E8DA1;" points="274.694,166.589 274.035,165.584 277.827,141.502 278.651,142.45 									"/>
									<polygon style="fill:#4E8DA1;" points="277.827,141.502 308.488,141.502 309.229,142.45 278.651,142.45 									"/>
								</g>
								<rect x="281.047" y="170.352" style="fill:#4E8DA1;" width="19.809" height="2.069"/>
								<polygon style="fill:#4E8DA1;" points="286.082,170.352 287.238,155.783 295.244,155.783 296.4,170.352 								"/>
							</g>
						</g>
					</g>
				</g>
				<g>
					<g>
						<rect x="304.385" y="120.629" style="fill:#666666;" width="24.226" height="20.523"/>
						<rect x="312.645" y="120.629" style="fill:#4D4D4D;" width="8" height="4.534"/>
						<g>
							<g>
								<path style="fill:#FFFFFF;" d="M323.266,124.476c-0.064,0-0.128-0.024-0.177-0.073c-0.098-0.098-0.098-0.256,0-0.354
									l0.717-0.717l-0.752-0.85c-0.091-0.104-0.082-0.261,0.021-0.353c0.104-0.093,0.262-0.082,0.354,0.022l0.907,1.025
									c0.087,0.099,0.083,0.249-0.011,0.342l-0.883,0.883C323.394,124.451,323.331,124.476,323.266,124.476z"/>
							</g>
							<g>
								<path style="fill:#FFFFFF;" d="M325.228,124.476c-0.064,0-0.128-0.024-0.177-0.073c-0.098-0.098-0.098-0.256,0-0.354
									l0.717-0.717l-0.751-0.849c-0.091-0.104-0.081-0.261,0.022-0.353c0.103-0.091,0.262-0.082,0.353,0.022l0.906,1.025
									c0.087,0.099,0.083,0.249-0.011,0.342l-0.883,0.883C325.356,124.451,325.293,124.476,325.228,124.476z"/>
							</g>
						</g>
						<g>
							<rect x="305.406" y="125.787" style="fill:#F1D34E;" width="3.156" height="3.156"/>
							<rect x="308.562" y="125.787" style="fill:#C85676;" width="3.156" height="3.156"/>
							<rect x="311.718" y="125.787" style="fill:#8043B1;" width="3.156" height="3.156"/>
							<rect x="314.874" y="125.787" style="fill:#D78785;" width="3.156" height="3.156"/>
							<rect x="318.031" y="125.787" style="fill:#FFFFFF;" width="3.156" height="3.156"/>
							<rect x="321.243" y="125.787" width="3.156" height="3.156"/>
							<rect x="324.399" y="125.787" style="fill:#FF0000;" width="3.156" height="3.156"/>
						</g>
						<g>
							<rect x="305.406" y="128.943" style="fill:#FFFF00;" width="3.156" height="3.156"/>
							<rect x="308.562" y="128.943" style="fill:#00FF00;" width="3.156" height="3.156"/>
							<rect x="311.718" y="128.943" style="fill:#00FFFF;" width="3.156" height="3.156"/>
							<rect x="314.874" y="128.943" style="fill:#0000FF;" width="3.156" height="3.156"/>
							<rect x="318.031" y="128.943" style="fill:#FF00FF;" width="3.156" height="3.156"/>
							<rect x="321.243" y="128.943" style="fill:#BF272D;" width="3.156" height="3.156"/>
							<rect x="324.399" y="128.943" style="fill:#EF5A24;" width="3.156" height="3.156"/>
						</g>
						<g>
							<rect x="305.406" y="132.099" style="fill:#F9AE3B;" width="3.156" height="3.156"/>
							<rect x="308.562" y="132.099" style="fill:#FAEC21;" width="3.156" height="3.156"/>
							<rect x="311.718" y="132.099" style="fill:#39B34A;" width="3.156" height="3.156"/>
							<rect x="314.874" y="132.099" style="fill:#8AC43F;" width="3.156" height="3.156"/>
							<rect x="318.031" y="132.099" style="fill:#006837;" width="3.156" height="3.156"/>
							<rect x="321.243" y="132.099" style="fill:#00A79B;" width="3.156" height="3.156"/>
							<rect x="324.399" y="132.099" style="fill:#0071BA;" width="3.156" height="3.156"/>
						</g>
						<g>
							<rect x="305.406" y="136.537" width="3.156" height="3.156"/>
							<rect x="308.562" y="136.537" style="fill:#333333;" width="3.156" height="3.156"/>
							<rect x="311.718" y="136.537" style="fill:#808080;" width="3.156" height="3.156"/>
							<rect x="314.874" y="136.537" style="fill:#999999;" width="3.156" height="3.156"/>
							<rect x="318.031" y="136.537" style="fill:#B3B3B3;" width="3.156" height="3.156"/>
							<rect x="321.187" y="136.537" style="fill:#E6E6E6;" width="3.212" height="3.156"/>
							<rect x="324.399" y="136.537" style="fill:#F2F2F2;" width="3.156" height="3.156"/>
						</g>
					</g>
					<g>
						<rect x="304.509" y="147.006" style="fill:#666666;" width="24.226" height="20.523"/>
						<rect x="312.645" y="147.006" style="fill:#4D4D4D;" width="8" height="4.534"/>
						<g>
							<g>
								<path style="fill:#FFFFFF;" d="M323.266,150.853c-0.064,0-0.128-0.024-0.177-0.073c-0.098-0.098-0.098-0.256,0-0.354
									l0.717-0.717l-0.752-0.85c-0.091-0.104-0.082-0.261,0.021-0.353c0.104-0.093,0.262-0.083,0.354,0.021l0.907,1.025
									c0.087,0.099,0.083,0.249-0.011,0.342l-0.883,0.883C323.394,150.829,323.331,150.853,323.266,150.853z"/>
							</g>
							<g>
								<path style="fill:#FFFFFF;" d="M325.228,150.853c-0.064,0-0.128-0.024-0.177-0.073c-0.098-0.098-0.098-0.256,0-0.354
									l0.717-0.717l-0.751-0.849c-0.091-0.104-0.081-0.261,0.022-0.353c0.103-0.091,0.262-0.082,0.353,0.022l0.906,1.025
									c0.087,0.099,0.083,0.249-0.011,0.342l-0.883,0.883C325.356,150.829,325.293,150.853,325.228,150.853z"/>
							</g>
						</g>
						<g>
							<g>
								<rect x="305.356" y="152.734" style="fill:#808080;" width="22.531" height="3.303"/>
								<rect x="305.356" y="152.734" style="fill:#999999;" width="3.457" height="3.303"/>
								<path style="fill:#666666;" d="M308.098,154.385c0,0.323-0.454,0.585-1.014,0.585c-0.56,0-1.014-0.262-1.014-0.585
									c0-0.323,0.454-0.585,1.014-0.585C307.645,153.8,308.098,154.062,308.098,154.385z"/>
								<rect x="309.477" y="152.954" style="fill:#E6E6E6;" width="3.072" height="2.936"/>
								<path style="fill:#B3B3B3;" d="M326.454,155.229h-12.208c-0.395,0-0.714-0.32-0.714-0.714l0,0
									c0-0.395,0.32-0.714,0.714-0.714h12.208c0.395,0,0.714,0.32,0.714,0.714l0,0
									C327.168,154.909,326.848,155.229,326.454,155.229z"/>
							</g>
							<g>
								<rect x="305.356" y="156.484" style="fill:#808080;" width="22.531" height="3.303"/>
								<rect x="305.356" y="156.484" style="fill:#999999;" width="3.457" height="3.303"/>
								<path style="fill:#666666;" d="M308.098,158.135c0,0.323-0.454,0.585-1.014,0.585c-0.56,0-1.014-0.262-1.014-0.585
									c0-0.323,0.454-0.585,1.014-0.585C307.645,157.55,308.098,157.812,308.098,158.135z"/>
								<rect x="309.477" y="156.704" style="fill:#E6E6E6;" width="3.072" height="2.936"/>
								<path style="fill:#B3B3B3;" d="M326.454,158.979h-12.208c-0.395,0-0.714-0.32-0.714-0.714l0,0
									c0-0.395,0.32-0.714,0.714-0.714h12.208c0.395,0,0.714,0.32,0.714,0.714l0,0
									C327.168,158.659,326.848,158.979,326.454,158.979z"/>
							</g>
						</g>
					</g>
				</g>
				<g>
					<rect x="331.039" y="109.915" style="fill:#4D4D4D;" width="3.198" height="0.487"/>
					<rect x="331.039" y="110.598" style="fill:#4D4D4D;" width="3.198" height="0.487"/>
				</g>
				<g>
					<path style="fill:#EB1C24;" d="M213.428,113.454c0,0.379-0.307,0.686-0.686,0.686c-0.379,0-0.686-0.307-0.686-0.686
						s0.307-0.686,0.686-0.686C213.121,112.768,213.428,113.075,213.428,113.454z"/>
					<path style="fill:#F1D34E;" d="M215.771,113.454c0,0.379-0.307,0.686-0.686,0.686c-0.379,0-0.686-0.307-0.686-0.686
						s0.307-0.686,0.686-0.686C215.464,112.768,215.771,113.075,215.771,113.454z"/>
					<path style="fill:#39B34A;" d="M218.059,113.454c0,0.379-0.307,0.686-0.686,0.686c-0.379,0-0.686-0.307-0.686-0.686
						s0.307-0.686,0.686-0.686C217.752,112.768,218.059,113.075,218.059,113.454z"/>
				</g>
			</g>
		</g>
		<g>
			<g>
				
					<rect x="368.296" y="189.93" transform="matrix(0.9883 -0.1526 0.1526 0.9883 -26.1903 58.7257)" style="fill:#F5E5A1;" width="2.307" height="20.078"/>
				
					<rect x="378.258" y="188.391" transform="matrix(-0.9883 -0.1526 0.1526 -0.9883 724.0979 452.4381)" style="fill:#D1388D;" width="2.307" height="20.078"/>
				
					<rect x="373.605" y="185.507" transform="matrix(-1 -1.224647e-16 1.224647e-16 -1 749.7667 393.2645)" style="fill:#3A1081;" width="2.557" height="22.25"/>
			</g>
			
				<linearGradient id="SVGID_00000076600459810949292910000015231182996845926841_" gradientUnits="userSpaceOnUse" x1="365.2727" y1="214.757" x2="383.589" y2="214.757">
				<stop  offset="0.0045" style="stop-color:#4E8DA1"/>
				<stop  offset="0.2629" style="stop-color:#5090A4"/>
				<stop  offset="0.4722" style="stop-color:#589AAE"/>
				<stop  offset="0.6643" style="stop-color:#64ABBF"/>
				<stop  offset="0.8451" style="stop-color:#75C2D7"/>
				<stop  offset="1" style="stop-color:#88DCF2"/>
			</linearGradient>
			
				<rect x="365.273" y="201.563" style="fill:url(#SVGID_00000076600459810949292910000015231182996845926841_);" width="18.316" height="26.388"/>
		</g>
		<g>
			<g>
				
					<linearGradient id="SVGID_00000126298370564890281490000007144697262247329423_" gradientUnits="userSpaceOnUse" x1="349.2191" y1="208.528" x2="349.2191" y2="173.8401">
					<stop  offset="0.0045" style="stop-color:#4E8DA1"/>
					<stop  offset="0.2629" style="stop-color:#5090A4"/>
					<stop  offset="0.4722" style="stop-color:#589AAE"/>
					<stop  offset="0.6643" style="stop-color:#64ABBF"/>
					<stop  offset="0.8451" style="stop-color:#75C2D7"/>
					<stop  offset="1" style="stop-color:#88DCF2"/>
				</linearGradient>
				<path style="fill:url(#SVGID_00000126298370564890281490000007144697262247329423_);" d="M348.638,202.431
					c-3.512,0.762-9.009-4.77-10.753-7.181c-1.18-1.632-2.267-4.131,0.176-5.544c1.721-0.995,3.277,0.586,4.44,1.833
					c-1.302-2.998-5.871-8.884-3.531-12.248c3.224-4.637,5.765,4.349,6.269,6.123c-0.851-3.135,2.021-11.145,5.927-10.96
					c6.581,0.311,1.009,9.593,0.056,12.069c2.876-0.705,5.299-6.809,9.468-3.669c3.035,2.286-0.658,5.561-2.516,7.064
					c2.622-1.166,3.134,1.821,2.618,3.674c-0.603,2.167-2.587,3.624-4.222,5.038c-1.115,0.964-6.885,5.51-7.6,2.701"/>
				<path style="fill:#88DCF2;" d="M352.745,194.884c0.122-0.166-0.209,0.183-0.245,0.216c-0.157,0.141-0.325,0.269-0.494,0.395
					c-0.409,0.305-0.836,0.587-1.268,0.859c-0.423,0.267-0.855,0.524-1.299,0.756c-0.12,0.063-0.242,0.121-0.363,0.179
					c-0.12-1.081-0.179-2.19-0.198-3.307c0.115-0.013,0.23-0.03,0.35-0.087c1.652-0.779,3.511-1.614,4.902-2.816
					c1.002-0.866-0.457-2.314-1.453-1.453c-1.011,0.874-2.454,1.552-3.764,2.158c0.125-2.559,0.538-5.067,1.358-7.224
					c0.487-1.281-1.569-1.835-2.051-0.565c-0.792,2.083-1.227,4.469-1.398,6.924c-0.06-0.073-0.122-0.146-0.182-0.218
					c-0.571-0.682-1.1-1.376-1.548-2.147c-0.664-1.142-2.441-0.109-1.774,1.037c0.534,0.919,1.187,1.749,1.869,2.563
					c0.487,0.581,0.997,0.983,1.557,1.398c0.007,1.114,0.061,2.221,0.164,3.31c-0.226-0.117-0.448-0.238-0.658-0.373
					c-0.926-0.594-1.826-1.213-2.585-2.016c-0.942-0.997-2.444,0.509-1.504,1.504c0.796,0.843,1.747,1.52,2.715,2.154
					c0.44,0.288,0.885,0.57,1.34,0.833c0.322,0.186,0.677,0.334,1.018,0.499c0.129,0.784,0.275,1.55,0.446,2.279
					c0.312,1.332,2.363,0.768,2.051-0.566c-0.129-0.551-0.24-1.129-0.343-1.715c0.867-0.242,1.715-0.823,2.424-1.27
					c0.98-0.617,2.075-1.286,2.77-2.233C355.393,194.853,353.548,193.791,352.745,194.884z"/>
			</g>
			
				<linearGradient id="SVGID_00000024688386193694977350000017854151547717351582_" gradientUnits="userSpaceOnUse" x1="342.4369" y1="226.0846" x2="355.4369" y2="199.5846">
				<stop  offset="0" style="stop-color:#F9AE3B"/>
				<stop  offset="0.164" style="stop-color:#F9B243"/>
				<stop  offset="0.4194" style="stop-color:#F8BE59"/>
				<stop  offset="0.7323" style="stop-color:#F6D17D"/>
				<stop  offset="1" style="stop-color:#F5E5A1"/>
			</linearGradient>
			<path style="fill:url(#SVGID_00000024688386193694977350000017854151547717351582_);" d="M362.46,214.71
				c0-3.722-1.541-7.08-4.013-9.485c1.057-0.261,1.849-1.213,1.849-2.347c0-1.333-1.091-2.424-2.424-2.424h-17.304
				c-1.333,0-2.424,1.091-2.424,2.424c0,1.134,0.792,2.086,1.849,2.347c-2.473,2.406-4.013,5.763-4.013,9.485
				c0,4.589,2.335,8.63,5.881,11.006c-0.508,0.115-0.899,0.551-0.899,1.093c0,0.628,0.514,1.142,1.142,1.142h14.598
				c0.628,0,1.142-0.514,1.142-1.142c0-0.628-0.514-1.142-1.142-1.142h-0.049C360.157,223.285,362.46,219.267,362.46,214.71z"/>
		</g>
		<g>
			
				<linearGradient id="SVGID_00000120525536257288287760000005854641329096334268_" gradientUnits="userSpaceOnUse" x1="297.9791" y1="236.5273" x2="322.9791" y2="204.5273">
				<stop  offset="0.0045" style="stop-color:#4E8DA1"/>
				<stop  offset="0.2629" style="stop-color:#5090A4"/>
				<stop  offset="0.4722" style="stop-color:#589AAE"/>
				<stop  offset="0.6643" style="stop-color:#64ABBF"/>
				<stop  offset="0.8451" style="stop-color:#75C2D7"/>
				<stop  offset="1" style="stop-color:#88DCF2"/>
			</linearGradient>
			<path style="fill:url(#SVGID_00000120525536257288287760000005854641329096334268_);" d="M292.814,227.951h25.99
				c0.795,0,1.445-0.651,1.445-1.446l0,0c0-0.795-0.65-1.446-1.445-1.446h-25.99c-0.795,0-1.446,0.651-1.446,1.446l0,0
				C291.368,227.3,292.019,227.951,292.814,227.951z"/>
			
				<linearGradient id="SVGID_00000169542470151311995330000017361330165931740578_" gradientUnits="userSpaceOnUse" x1="289.1353" y1="229.6181" x2="314.1353" y2="197.618">
				<stop  offset="0.0045" style="stop-color:#4E8DA1"/>
				<stop  offset="0.2629" style="stop-color:#5090A4"/>
				<stop  offset="0.4722" style="stop-color:#589AAE"/>
				<stop  offset="0.6643" style="stop-color:#64ABBF"/>
				<stop  offset="0.8451" style="stop-color:#75C2D7"/>
				<stop  offset="1" style="stop-color:#88DCF2"/>
			</linearGradient>
			<path style="fill:url(#SVGID_00000169542470151311995330000017361330165931740578_);" d="M285.674,212.724
				c0,5.131,4.174,9.305,9.305,9.305c0.813,0,1.597-0.115,2.348-0.312c1.999,2.532,5.088,4.163,8.565,4.163
				c6.027,0,10.913-4.886,10.913-10.913v-12.472h-21.825v0.923C289.847,203.419,285.674,207.593,285.674,212.724z M287.217,212.724
				c0-4.28,3.482-7.761,7.761-7.761v10.005c0,1.955,0.521,3.786,1.422,5.374c-0.462,0.086-0.935,0.144-1.422,0.144
				C290.699,220.485,287.217,217.003,287.217,212.724z"/>
		</g>
		<g>
			<g>
				<g>
					<g>
						<polygon style="fill:#98565C;" points="302.75,396.93 299.217,396.93 335.221,232.327 338.754,233.292 						"/>
					</g>
					<g>
						<polygon style="fill:#98565C;" points="384.713,396.93 348.709,233.292 352.241,232.327 388.245,396.93 						"/>
					</g>
				</g>
				<g>
					<g>
						<polygon style="fill:#98565C;" points="137.257,396.93 133.725,396.93 169.728,232.327 173.261,233.292 						"/>
					</g>
					<g>
						<polygon style="fill:#98565C;" points="219.22,396.93 183.216,233.292 186.749,232.327 222.753,396.93 						"/>
					</g>
				</g>
			</g>
			<g>
				<path style="fill:#4C258C;" d="M379.542,236.019c0,8.57-7.02,15.58-15.59,15.58h-205.94c-4.29,0-8.18-1.75-11-4.58
					c-2.83-2.82-4.58-6.72-4.58-11H379.542z"/>
				<path style="fill:#D1388D;" d="M132.164,236.993h257.643c2.492,0,4.531-2.039,4.531-4.531l0,0c0-2.492-2.039-4.531-4.531-4.531
					H132.164c-2.492,0-4.531,2.039-4.531,4.531l0,0C127.633,234.954,129.672,236.993,132.164,236.993z"/>
			</g>
		</g>
	</g>
	<g>
		<g>
			<g>
				
					<linearGradient id="SVGID_00000047776398823375823250000015358501367367821448_" gradientUnits="userSpaceOnUse" x1="240.3496" y1="213.1929" x2="263.0223" y2="213.1929">
					<stop  offset="0.0045" style="stop-color:#4E8DA1"/>
					<stop  offset="0.2629" style="stop-color:#5090A4"/>
					<stop  offset="0.4722" style="stop-color:#589AAE"/>
					<stop  offset="0.6643" style="stop-color:#64ABBF"/>
					<stop  offset="0.8451" style="stop-color:#75C2D7"/>
					<stop  offset="1" style="stop-color:#88DCF2"/>
				</linearGradient>
				<path style="fill:url(#SVGID_00000047776398823375823250000015358501367367821448_);" d="M242.403,227.706l-2.053-1.55
					l20.36-26.965c0.428-0.567,1.235-0.68,1.802-0.252l0,0c0.567,0.428,0.68,1.235,0.251,1.802L242.403,227.706z"/>
				
					<linearGradient id="SVGID_00000054975535183979951390000016500415602039934359_" gradientUnits="userSpaceOnUse" x1="229.7526" y1="226.9581" x2="269.5958" y2="226.9581">
					<stop  offset="0.0045" style="stop-color:#4E8DA1"/>
					<stop  offset="0.2629" style="stop-color:#5090A4"/>
					<stop  offset="0.4722" style="stop-color:#589AAE"/>
					<stop  offset="0.6643" style="stop-color:#64ABBF"/>
					<stop  offset="0.8451" style="stop-color:#75C2D7"/>
					<stop  offset="1" style="stop-color:#88DCF2"/>
				</linearGradient>
				<path style="fill:url(#SVGID_00000054975535183979951390000016500415602039934359_);" d="M267.649,225.985h-35.95
					c-1.075,0-1.947,0.871-1.947,1.947l0,0h39.843l0,0C269.596,226.856,268.724,225.985,267.649,225.985z"/>
			</g>
			<g>
				<g>
					<path style="fill:#E8B8B7;" d="M204.789,334.798c-2.99,11.392-6.103,21.149-7.85,26.489c-0.864,2.64-0.911,5.474-0.157,8.147
						c1.891,6.701,2.073,12.909,2.957,17.654c0.47,2.51,1.14,4.61,2.35,6.16c3.52,4.46-8.15,6.01-12.63,4.07
						c-4.51-1.97-1.84-17.13-1.84-17.13s-6.32-9.13-0.16-14.55c-0.01-0.19-0.02-0.39-0.03-0.58c-0.51-11.06-0.96-22.56-1.1-33.32
						c-0.31-26.15,1.13-48.05,7.53-49.24c-0.49-0.13-4.78-1.63-5.25-1.77c-9.47-3.01-15.81-7.91-17.31-15.75
						c0,0,38.39-3.32,40.72,13.15C214.199,293.388,209.649,316.258,204.789,334.798z"/>
					<path style="fill:#E8B8B7;" d="M255.449,363.748c-4.33-4.5-10.21-10.42-13.42-22.13v-0.01c-0.01-0.02-0.02-0.03-0.02-0.05
						c-6.53-8.53-13.67-17.25-20.52-25.86c-16.86-21.26-31.91-42.01-31.46-58.44c0.08-2.92,1.32-5.52,3.27-7.39
						c1.96-1.89,4.62-3.03,7.52-3.03c6.32,0,12,3.79,14.43,9.62l20.09,48.91l12.85,31.29l0.06-0.04c6.31,5.29,10.01,8.91,12.6,13.63
						c1.37,2.5,2.43,5.32,3.39,8.85C265.849,364.938,259.629,368.108,255.449,363.748z"/>
					<path style="fill:#3A1081;" d="M198.341,274.427h-47.455c-8.145,0-14.809-6.664-14.809-14.809l0,0
						c0-8.145,6.664-14.809,14.809-14.809h47.455c8.145,0,14.809,6.664,14.809,14.809l0,0
						C213.15,267.763,206.486,274.427,198.341,274.427z"/>
				</g>
				<g>
					<path style="fill:#E8B8B7;" d="M182.375,134.267c-1.319-6.24-0.44-12.821,2.831-18.296c2.127-3.559,4.862-6.224,7.786-6.769
						c6.476-1.207,15.088-0.434,17.162,14.699c0.263,1.919,1.073,3.754,2.455,5.11c1.439,1.412,2.436,3.296-1.575,3.896
						c0.222,7.277-4.139,14.813-10.931,16.704c-3.639,1.014-7.975-0.944-11.599-4.128c-3.094-2.719-5.122-6.449-5.973-10.479
						L182.375,134.267z"/>
					<path style="fill:#3A1081;" d="M204.914,125.466c0.212,1.415,0.829,2.494,1.379,2.412c0.55-0.082,0.824-1.296,0.612-2.71
						c-0.212-1.415-0.83-2.494-1.38-2.412C204.975,122.838,204.702,124.051,204.914,125.466z"/>
					<g>
						<path style="fill:#3A1081;" d="M200.891,121.626c0.205-0.021,0.391-0.158,0.463-0.367c1.125-3.284,4.114-2.475,4.242-2.439
							c0.29,0.082,0.589-0.086,0.675-0.375c0.082-0.29-0.086-0.593-0.377-0.675c-1.417-0.405-4.409-0.266-5.575,3.135
							c-0.097,0.285,0.055,0.596,0.342,0.693C200.736,121.626,200.814,121.633,200.891,121.626z"/>
					</g>
					<g>
						<path style="fill:#3A1081;" d="M208.94,135.872c-0.107-0.177-0.312-0.285-0.531-0.26c-3.448,0.401-4.006-2.645-4.03-2.776
							c-0.051-0.296-0.331-0.495-0.63-0.447c-0.297,0.051-0.497,0.333-0.446,0.632c0.245,1.453,1.66,4.093,5.232,3.678
							c0.3-0.035,0.515-0.306,0.479-0.607C209.007,136.011,208.98,135.937,208.94,135.872z"/>
					</g>
				</g>
				<g>
					<path style="fill:#E8B8B7;" d="M185.619,140.909c0,0-2.985,17.401-3.03,17.264l13.882,1.229c0,0-0.951-8.347,2.052-13.909
						L185.619,140.909z"/>
					
						<linearGradient id="SVGID_00000056429092809516878160000016669404897808604861_" gradientUnits="userSpaceOnUse" x1="167.7208" y1="196.2648" x2="199.0679" y2="201.1122">
						<stop  offset="0" style="stop-color:#F9AE3B"/>
						<stop  offset="0.164" style="stop-color:#F9B243"/>
						<stop  offset="0.4194" style="stop-color:#F8BE59"/>
						<stop  offset="0.7323" style="stop-color:#F6D17D"/>
						<stop  offset="1" style="stop-color:#F5E5A1"/>
					</linearGradient>
					<path style="fill:url(#SVGID_00000056429092809516878160000016669404897808604861_);" d="M218.07,179.338
						c-1.2,0.88-6.23,3.42-9.87,5.22c-2.46,1.22-3.9,3.89-3.48,6.6c0.02,0.1,0.03,0.16,0.04,0.16c-0.03,0.75-0.09,1.5-0.18,2.26
						v0.01c-0.2,1.82-0.55,3.64-1.06,5.38c-2.34,8.01-9.17,8.01-9.17,8.01s-11.59,30.33-12.04,37.83h-31.95
						c17.56-34.51,9.86-53.94,14.86-74.24c1.84-7.49,8.05-13.04,15.39-14.02c0.93-0.12,1.76-0.97,1.84-1.91v-0.02l0.53-6.13
						c0.05-0.67,0.74-1.09,1.36-0.86l0.11,0.04h0.01l12.11,4.6l0.18,0.07c3.1,1.15,3.91,4.13,3.91,4.13l1.31,2.93
						c0.62,0.18,1.23,0.39,1.83,0.63C211.79,163.128,217.46,170.578,218.07,179.338z"/>
				</g>
				<g>
					
						<linearGradient id="SVGID_00000005233374017140400540000006376608114541826696_" gradientUnits="userSpaceOnUse" x1="175.3774" y1="131.5173" x2="228.5569" y2="87.4272">
						<stop  offset="0.0019" style="stop-color:#3A1081"/>
						<stop  offset="0.3867" style="stop-color:#502B8F"/>
						<stop  offset="0.7344" style="stop-color:#5E3B98"/>
						<stop  offset="0.9981" style="stop-color:#63419B"/>
					</linearGradient>
					<path style="fill:url(#SVGID_00000005233374017140400540000006376608114541826696_);" d="M207.346,111.985
						c-0.543-4.296-7.237-8.458-11-9.537c-11.265-3.228-18.723,0.386-23.365,4.808c-4.015,3.824-6.431,9.024-7.089,14.53
						c-0.303,2.533-0.658,5.758-0.929,8.94c-1.129,13.298,13.602,22.513,24.727,15.141c3.273-2.169,5.36-5.357,4.927-10.023l0,0
						c0,0-6.661-0.68-6.605-4.938c0.019-1.448,0.023-3.483,1.463-4.096c1.12-0.476,3.739,0.191,4.085,1.295
						c0.006-0.004-0.005,0.003,0.001-0.001c-0.822-4.095,1.374-8.085,5.192-9.749c0.265-0.115,0.53-0.24,0.797-0.375
						c1.503-0.763,2.927-1.475,4.288-2.492C204.901,114.694,207.346,111.985,207.346,111.985z"/>
				</g>
				<g>
					
						<linearGradient id="SVGID_00000167363423489914288110000000876482877400031879_" gradientUnits="userSpaceOnUse" x1="186.3887" y1="145.34" x2="239.5678" y2="101.2502">
						<stop  offset="0.0019" style="stop-color:#3A1081"/>
						<stop  offset="0.3867" style="stop-color:#502B8F"/>
						<stop  offset="0.7344" style="stop-color:#5E3B98"/>
						<stop  offset="0.9981" style="stop-color:#63419B"/>
					</linearGradient>
					<path style="fill:url(#SVGID_00000167363423489914288110000000876482877400031879_);" d="M190.459,123.767
						c0.308,0.419,0.482,0.896,0.797,1.332c0.493,0.682,1.185,1.147,1.701,1.791c0.797,0.995,1.212,2.723,1.438,3.969
						c0.432,2.374-0.059,4.758,0.636,7.092c0.434,1.457,0.175,3.085,1.026,4.444c0.789,1.261,2.017,1.318,3.21,1.992
						c2.391,1.35,0.759,4.544,1.531,6.633c0.499,1.352,2.003,1.798,3.332,1.699c2.631-0.197,3.876-2.481,5.757-3.92
						c-1.353,0.891-2.673,1.76-4.387,1.55c-2.075-0.254-2.37-1.196-2.37-3.127c0-1.559,0.344-3.531-0.338-4.956
						c-0.757-1.581-2.218-1.852-3.435-2.94c-2.208-1.975-1.225-5.783-1.346-8.426c-0.066-1.447-0.432-2.872-0.669-4.298
						c-0.236-1.418-0.721-3.254-1.572-4.429c-0.927-1.28-3.23-2.884-4.825-3.026c-1.883-0.167-3.049,2.039-1.997,3.529"/>
				</g>
				<path style="fill:#3A1081;" d="M189.459,397.318c-4.51-1.97-1.84-17.13-1.84-17.13s-6.32-9.13-0.16-14.55
					c-0.01-0.19,0.01,0.19,0,0c4.48-0.527,8.97,0.45,9.54,10.42c0.12,2.01,0.33,4.01,0.78,5.97c0.46,1.97,1.13,4.14,1.96,5.06
					c0.47,2.51,1.14,4.61,2.35,6.16C205.609,397.708,193.939,399.258,189.459,397.318z"/>
				<path style="fill:#3A1081;" d="M255.449,363.748c-4.33-4.5-10.21-10.42-13.42-22.13v-0.01c0.661-0.979,6.16-4.95,6.16-4.95
					s2.705,2.202,2.958,2.439c4.25,3.981,8.258,7.931,9.702,11.151c1.37,2.5,2.43,5.32,3.39,8.85
					C265.849,364.938,259.629,368.108,255.449,363.748z"/>
				<g>
					<path style="fill:#4E8DA1;" d="M166.758,121.043l-2.053-1.55l20.36-26.965c0.428-0.567,1.235-0.68,1.802-0.252l0,0
						c0.567,0.428,0.68,1.235,0.252,1.802L166.758,121.043z"/>
					<path style="fill:#D1388D;" d="M165.168,116.177l-1.286-2.228l29.261-16.894c0.615-0.355,1.402-0.144,1.757,0.471l0,0
						c0.355,0.615,0.144,1.402-0.471,1.757L165.168,116.177z"/>
					<g>
						<g>
							<path style="fill:#3A1081;" d="M174.895,102.442l-0.162-0.243C174.713,102.205,174.779,102.298,174.895,102.442z"/>
						</g>
						<g>
							
								<linearGradient id="SVGID_00000075129031556344134860000004423156188072108431_" gradientUnits="userSpaceOnUse" x1="155.7054" y1="141.0471" x2="232.4978" y2="74.1334">
								<stop  offset="0.0019" style="stop-color:#3A1081"/>
								<stop  offset="0.3867" style="stop-color:#502B8F"/>
								<stop  offset="0.7344" style="stop-color:#5E3B98"/>
								<stop  offset="0.9981" style="stop-color:#63419B"/>
							</linearGradient>
							<path style="fill:url(#SVGID_00000075129031556344134860000004423156188072108431_);" d="M177.662,106.593
								c0,0-1.791-7.388-12.922-7.357c-2.784,0.008-6.063,0.927-8.717,1.638c-4.051,1.085-6.987,2.442-9.992,5.419
								c-4.238,4.198-6.789,9.868-5.876,15.895c0.685,4.525,4.97,8.294,7.964,11.483c2.952,3.143,3.571,7.721,2.459,11.79
								c-0.96,3.514-4.478,5.798-7.229,7.859c-2.134,1.598-8.231,6.547-5.357,9.63c2.65,2.843,8.117,2.259,8.23,7.214
								c0.051,2.209-1.122,4.474-3.536,4.746c-1.697,0.191-3.001-0.323-3.557-2.01c-2.004,0.903-1.07,4.404-0.063,5.612
								c2.824,3.39,8.131,3.049,12.09,2.692c7.07-0.638,16.329-5.313,20.019-11.477c2.72-4.542,4.47-9.391,3.741-14.688
								c-0.549-3.987-2.966-7.207-5.582-10.11c-1.003-1.112-1.91-1.944-2.357-3.409c-0.6-1.965-0.764-4.046-0.608-6.094
								c0.215-2.826,0.698-4.856,2.529-6.99c1.943-2.266,4.263-4.197,6.217-6.468c2.182-2.536,3.2-5.26,3.738-8.483
								c0.362-2.167,0.086-3.959-0.78-5.966C177.939,107.21,177.803,106.901,177.662,106.593z"/>
						</g>
					</g>
				</g>
				<path style="fill:#E8B8B7;" d="M256.17,220.858c-0.61,6.77-9.9,5.34-9.9,5.34l-26.32,12.56c-5.06,2.48-11.03-0.89-11.53-6.5
					l-3.65-41.01c0,0.05-0.01,0.07-0.01,0.07c-0.01,0-0.02-0.06-0.04-0.16c-0.42-2.71,1.02-5.38,3.48-6.6
					c3.64-1.8,8.67-4.34,9.87-5.22c0.01,0.15,0.02,0.3,0.03,0.45c0.02,0.29,0.03,0.58,0.03,0.87c0.02,2.18,0.04,4.4,0.07,6.57
					c0.09,7.28,0.6,14.54,1.54,21.76l2.03,15.52l20.3-5.03l1.83-0.47c-0.24-1.15-0.25-2.04-0.17-2.72c0.15-1.1,1.1-1.91,2.21-1.89
					l3.23,0.08c1.47-1.57,2.97-2.28,4.52-2.14C256.02,212.288,256.52,215.748,256.17,220.858z"/>
			</g>
		</g>
		<g>
			<g>
				<g>
					<polygon style="fill:#63419B;" points="129.084,403.93 125.551,403.93 161.555,272.327 165.088,273.292 					"/>
				</g>
				<g>
					<polygon style="fill:#63419B;" points="241.047,403.93 205.043,273.292 208.575,272.327 244.579,403.93 					"/>
				</g>
				<g>
					<rect x="183.738" y="272.809" style="fill:#63419B;" width="3.661" height="131.121"/>
				</g>
				<polyline style="fill:none;stroke:#63419B;stroke-width:3;stroke-miterlimit:10;" points="152.591,312.348 185.569,330.666 
					216.314,308.256 				"/>
				<polyline style="fill:none;stroke:#63419B;stroke-width:3;stroke-miterlimit:10;" points="146.16,336.658 185.569,304.163 
					222.55,331.422 				"/>
			</g>
			
				<linearGradient id="SVGID_00000127737917038329832120000016821329077164665996_" gradientUnits="userSpaceOnUse" x1="206.1849" y1="267.8791" x2="206.1849" y2="234.783">
				<stop  offset="0.0019" style="stop-color:#3A1081"/>
				<stop  offset="0.3867" style="stop-color:#502B8F"/>
				<stop  offset="0.7344" style="stop-color:#5E3B98"/>
				<stop  offset="0.9981" style="stop-color:#63419B"/>
			</linearGradient>
			
				<rect x="203.11" y="242.028" style="fill:url(#SVGID_00000127737917038329832120000016821329077164665996_);" width="6.15" height="30.27"/>
			
				<linearGradient id="SVGID_00000003820646085014539260000001396407935982685103_" gradientUnits="userSpaceOnUse" x1="191.3994" y1="249.963" x2="191.8994" y2="219.4629">
				<stop  offset="0.0045" style="stop-color:#4E8DA1"/>
				<stop  offset="0.2667" style="stop-color:#64ACC0"/>
				<stop  offset="0.5537" style="stop-color:#78C6DC"/>
				<stop  offset="0.8076" style="stop-color:#84D6EC"/>
				<stop  offset="1" style="stop-color:#88DCF2"/>
			</linearGradient>
			<path style="fill:url(#SVGID_00000003820646085014539260000001396407935982685103_);" d="M162.745,245.494h52.938
				c2.624,0,4.75-2.127,4.75-4.751l0,0c0-2.624-2.127-4.751-4.75-4.751h-52.938V245.494z"/>
			
				<linearGradient id="SVGID_00000153675780034420234560000009773771634324467633_" gradientUnits="userSpaceOnUse" x1="152.133" y1="285.9767" x2="215.4059" y2="189.7868">
				<stop  offset="0.0045" style="stop-color:#4E8DA1"/>
				<stop  offset="0.2667" style="stop-color:#64ACC0"/>
				<stop  offset="0.5537" style="stop-color:#78C6DC"/>
				<stop  offset="0.8076" style="stop-color:#84D6EC"/>
				<stop  offset="1" style="stop-color:#88DCF2"/>
			</linearGradient>
			<path style="fill:url(#SVGID_00000153675780034420234560000009773771634324467633_);" d="M203.091,260.528h-9.86
				c-7.304,0-13.385-5.608-13.975-12.888l-3.539-43.664c-1.038-12.811-11.422-22.863-24.26-23.485h0
				c-12.688-0.615-23.906,8.173-26.345,20.639l-5.943,45.701c-3.723,19.025,3.031,38.45,20.886,46.002
				c4.974,2.104,10.442,3.267,16.182,3.267h71.379c3.051,0,5.524-2.473,5.524-5.524l0,0
				C233.139,273.981,219.686,260.528,203.091,260.528z"/>
		</g>
	</g>
</g>
<g id="DESIGNED_BY_FREEPIK">
	<g>
		<g>
			<g id="XMLID_29_">
				<g id="XMLID_48_">
					<path id="XMLID_56_" style="fill:#1D262D;" d="M260.104,465.465c-0.432,0.443-0.803,0.931-1.108,1.453l-0.465-0.241
						c-0.067-0.298-0.349-0.503-0.659-0.466c-0.331,0.039-0.568,0.339-0.529,0.67c0.039,0.331,0.339,0.568,0.67,0.529
						c0.065-0.008,0.127-0.026,0.183-0.052l0.452,0.234c-0.251,0.554-0.433,1.139-0.539,1.744l0.746,0.132
						c0.23-1.306,0.85-2.507,1.792-3.473L260.104,465.465z"/>
					<path id="XMLID_55_" style="fill:#1D262D;" d="M265.591,463.163c-0.171,0-0.341,0.006-0.51,0.017l-0.074-0.626
						c0.188-0.149,0.296-0.389,0.266-0.645c-0.046-0.393-0.402-0.674-0.795-0.628c-0.393,0.046-0.674,0.402-0.628,0.795
						c0.03,0.254,0.189,0.461,0.404,0.564l0.074,0.624c-0.714,0.116-1.403,0.332-2.06,0.646l0.327,0.684
						c0.934-0.447,1.942-0.673,2.995-0.673c0.496,0,0.993,0.053,1.475,0.158l0.161-0.741
						C266.692,463.222,266.142,463.163,265.591,463.163z"/>
					<path id="XMLID_54_" style="fill:#1D262D;" d="M272.194,465.711c0.331-0.04,0.566-0.341,0.525-0.672
						c-0.04-0.331-0.341-0.566-0.672-0.526c-0.309,0.038-0.535,0.304-0.53,0.609l-0.416,0.363c-0.418-0.43-0.889-0.813-1.408-1.139
						l-0.404,0.641c1.134,0.715,2.021,1.726,2.563,2.925l0.691-0.313c-0.251-0.554-0.568-1.072-0.942-1.545l0.402-0.351
						C272.064,465.716,272.128,465.719,272.194,465.711z"/>
					<path id="XMLID_53_" style="fill:#1D262D;" d="M265.044,473.372c-0.386,0.023-0.775,0.035-1.157,0.035
						c-0.88,0-1.733-0.061-2.478-0.179c-0.39-0.062-0.846-0.155-1.27-0.292c1.046,1.861,3.069,3.125,5.388,3.125
						c2.855,0,5.262-1.916,5.95-4.504c-0.682,0.449-1.505,0.825-2.459,1.123C267.838,473.047,266.463,473.286,265.044,473.372z"/>
					<path id="XMLID_49_" style="fill:#1D262D;" d="M265.591,464.68c-3.352,0-6.079,2.666-6.079,5.943
						c0,0.426,0.046,0.849,0.137,1.261c0.673,0.483,2.706,0.89,5.348,0.731c2.88-0.173,5.297-0.957,6.672-2.159
						c-0.005-0.195-0.021-0.39-0.045-0.582C271.243,466.913,268.65,464.68,265.591,464.68z M263.432,471.194
						c-1.02,0-1.85-0.83-1.85-1.85c0-1.02,0.83-1.85,1.85-1.85s1.85,0.83,1.85,1.85
						C265.282,470.365,264.452,471.194,263.432,471.194z M268.169,470.286c-0.75,0-1.36-0.61-1.36-1.36s0.61-1.361,1.36-1.361
						c0.75,0,1.361,0.61,1.361,1.361S268.92,470.286,268.169,470.286z"/>
				</g>
				<path id="XMLID_46_" style="fill:#1D262D;" d="M281.595,466.547c-0.295-0.116-0.806-0.309-1.383-0.237
					c-0.551,0.069-0.844,0.341-0.844,1.007v0.866h2.228v1.717h-2.228v5.455h-1.932v-5.455h-1.34v-1.717h1.34v-0.888
					c0-1.68,0.896-2.783,2.568-2.783c0.643,0,1.157,0.122,1.59,0.308L281.595,466.547z"/>
				<path id="XMLID_44_" style="fill:#1D262D;" d="M286.297,469.879c-0.177-0.03-0.357-0.046-0.526-0.046
					c-0.896,0-1.51,0.548-1.51,1.614v3.908h-1.932v-7.172h1.873v0.785c0.451-0.673,1.14-0.977,2.021-0.977
					c0.414,0,0.848,0.128,1.094,0.337L286.297,469.879z"/>
				<path id="XMLID_41_" style="fill:#1D262D;" d="M293.965,471.757c0,0.222-0.015,0.489-0.037,0.651h-5.085
					c0.207,1.036,0.933,1.488,1.843,1.488c0.622,0,1.295-0.252,1.813-0.688l1.132,1.243c-0.814,0.748-1.85,1.088-3.057,1.088
					c-2.198,0-3.723-1.495-3.723-3.753c0-2.258,1.48-3.797,3.627-3.797C292.544,467.99,293.957,469.522,293.965,471.757z
					 M288.85,471.091h3.175c-0.177-0.918-0.733-1.436-1.561-1.436C289.553,469.655,289.021,470.203,288.85,471.091z"/>
				<path id="XMLID_38_" style="fill:#1D262D;" d="M301.618,471.757c0,0.222-0.015,0.489-0.037,0.651h-5.085
					c0.207,1.036,0.932,1.488,1.843,1.488c0.622,0,1.295-0.252,1.813-0.688l1.132,1.243c-0.814,0.748-1.85,1.088-3.057,1.088
					c-2.198,0-3.723-1.495-3.723-3.753c0-2.258,1.48-3.797,3.627-3.797C300.197,467.99,301.611,469.522,301.618,471.757z
					 M296.504,471.091h3.175c-0.178-0.918-0.733-1.436-1.562-1.436C297.207,469.655,296.674,470.203,296.504,471.091z"/>
				<path id="XMLID_35_" style="fill:#1D262D;" d="M309.964,471.764c0,2.154-1.495,3.775-3.471,3.775
					c-0.962,0-1.643-0.378-2.109-0.933v3.708h-1.924v-10.133h1.887v0.792c0.466-0.585,1.155-0.984,2.139-0.984
					C308.469,467.99,309.964,469.61,309.964,471.764z M304.287,471.764c0,1.132,0.747,1.976,1.843,1.976
					c1.14,0,1.85-0.881,1.85-1.976c0-1.095-0.71-1.976-1.85-1.976C305.034,469.788,304.287,470.632,304.287,471.764z"/>
				<path id="XMLID_32_" style="fill:#1D262D;" d="M313.067,465.836c0,0.696-0.54,1.229-1.236,1.229
					c-0.696,0-1.229-0.533-1.229-1.229c0-0.696,0.533-1.243,1.229-1.243C312.527,464.592,313.067,465.14,313.067,465.836z
					 M312.808,475.354h-1.932v-7.172h1.932V475.354z"/>
				<path id="XMLID_30_" style="fill:#1D262D;" d="M316.032,470.736l2.702-2.554h2.368l-3.479,3.375l3.501,3.797h-2.376
					l-2.716-2.901v2.901H314.1v-10.658h1.932V470.736z"/>
			</g>
			<g>
				<path style="fill:#1D262D;" d="M184.412,475.289v-1.055c-0.527,0.718-1.391,1.23-2.387,1.23c-1.846,0-3.149-1.406-3.149-3.706
					c0-2.256,1.289-3.721,3.149-3.721c0.952,0,1.816,0.469,2.387,1.245v-3.765h1.099v9.77H184.412z M184.412,473.37v-3.208
					c-0.395-0.615-1.245-1.143-2.124-1.143c-1.421,0-2.27,1.172-2.27,2.739c0,1.567,0.85,2.724,2.27,2.724
					C183.167,474.483,184.017,473.986,184.412,473.37z"/>
				<path style="fill:#1D262D;" d="M186.932,471.744c0-2.051,1.465-3.706,3.486-3.706c2.139,0,3.398,1.67,3.398,3.794v0.279h-5.727
					c0.088,1.333,1.025,2.446,2.549,2.446c0.805,0,1.626-0.322,2.182-0.894l0.527,0.718c-0.703,0.703-1.655,1.084-2.812,1.084
					C188.44,475.465,186.932,473.956,186.932,471.744z M190.403,468.947c-1.509,0-2.256,1.274-2.314,2.358h4.643
					C192.717,470.25,192.014,468.947,190.403,468.947z"/>
				<path style="fill:#1D262D;" d="M194.607,474.351l0.571-0.791c0.469,0.542,1.362,1.011,2.329,1.011
					c1.084,0,1.67-0.513,1.67-1.216c0-1.714-4.38-0.659-4.38-3.281c0-1.098,0.952-2.036,2.636-2.036
					c1.201,0,2.051,0.454,2.622,1.026l-0.513,0.762c-0.425-0.513-1.201-0.894-2.109-0.894c-0.967,0-1.567,0.483-1.567,1.113
					c0,1.552,4.38,0.527,4.38,3.281c0,1.187-0.952,2.138-2.783,2.138C196.306,475.465,195.324,475.113,194.607,474.351z"/>
				<path style="fill:#1D262D;" d="M201.477,466.471c0-0.41,0.337-0.747,0.732-0.747c0.41,0,0.747,0.337,0.747,0.747
					c0,0.41-0.337,0.732-0.747,0.732C201.814,467.203,201.477,466.881,201.477,466.471z M201.667,475.289v-7.075h1.099v7.075
					H201.667z"/>
				<path style="fill:#1D262D;" d="M204.582,477.105l0.556-0.82c0.586,0.703,1.289,0.967,2.3,0.967c1.172,0,2.27-0.571,2.27-2.124
					v-1.011c-0.513,0.718-1.377,1.26-2.373,1.26c-1.845,0-3.149-1.377-3.149-3.662c0-2.27,1.289-3.677,3.149-3.677
					c0.952,0,1.802,0.469,2.373,1.245v-1.069h1.099v6.87c0,2.344-1.641,3.076-3.369,3.076
					C206.237,478.16,205.416,477.926,204.582,477.105z M209.708,473.253v-3.091c-0.381-0.615-1.23-1.143-2.109-1.143
					c-1.421,0-2.27,1.128-2.27,2.695c0,1.553,0.849,2.695,2.27,2.695C208.478,474.41,209.327,473.868,209.708,473.253z"/>
				<path style="fill:#1D262D;" d="M217.413,475.289v-4.629c0-1.245-0.63-1.641-1.582-1.641c-0.864,0-1.685,0.527-2.095,1.099v5.17
					h-1.099v-7.075h1.099v1.025c0.498-0.586,1.464-1.201,2.519-1.201c1.48,0,2.256,0.747,2.256,2.285v4.966H217.413z"/>
				<path style="fill:#1D262D;" d="M219.932,471.744c0-2.051,1.465-3.706,3.486-3.706c2.139,0,3.399,1.67,3.399,3.794v0.279h-5.727
					c0.088,1.333,1.025,2.446,2.549,2.446c0.806,0,1.626-0.322,2.183-0.894l0.527,0.718c-0.703,0.703-1.655,1.084-2.812,1.084
					C221.441,475.465,219.932,473.956,219.932,471.744z M223.404,468.947c-1.509,0-2.256,1.274-2.314,2.358h4.643
					C225.718,470.25,225.015,468.947,223.404,468.947z"/>
				<path style="fill:#1D262D;" d="M233.35,475.289v-1.055c-0.527,0.718-1.392,1.23-2.388,1.23c-1.846,0-3.149-1.406-3.149-3.706
					c0-2.256,1.289-3.721,3.149-3.721c0.952,0,1.817,0.469,2.388,1.245v-3.765h1.098v9.77H233.35z M233.35,473.37v-3.208
					c-0.396-0.615-1.245-1.143-2.124-1.143c-1.421,0-2.27,1.172-2.27,2.739c0,1.567,0.849,2.724,2.27,2.724
					C232.105,474.483,232.954,473.986,233.35,473.37z"/>
				<path style="fill:#1D262D;" d="M239.692,475.289v-9.77h1.098v3.765c0.572-0.776,1.421-1.245,2.388-1.245
					c1.845,0,3.149,1.465,3.149,3.721c0,2.299-1.304,3.706-3.149,3.706c-0.996,0-1.86-0.513-2.388-1.23v1.055H239.692z
					 M242.899,474.483c1.436,0,2.286-1.157,2.286-2.724c0-1.568-0.85-2.739-2.286-2.739c-0.864,0-1.728,0.527-2.109,1.143v3.208
					C241.171,473.986,242.035,474.483,242.899,474.483z"/>
				<path style="fill:#1D262D;" d="M247.528,477.061c0.161,0.073,0.425,0.117,0.601,0.117c0.483,0,0.805-0.161,1.055-0.747
					l0.469-1.069l-2.959-7.148h1.187l2.358,5.8l2.344-5.8h1.201l-3.545,8.51c-0.425,1.025-1.143,1.421-2.08,1.435
					c-0.234,0-0.601-0.044-0.805-0.103L247.528,477.061z"/>
			</g>
		</g>
	</g>
</g>
</svg>
